<svg xmlns="http://www.w3.org/2000/svg" viewBox="0 0 1280 720" role="img" aria-labelledby="title desc">
  <title id="title">Clear robot workcell replay frame</title>
  <desc id="desc">A fenced robot workcell is clear with no obstruction inside the marked safety zone.</desc>
  <defs>
    <linearGradient id="floor" x1="0" x2="1" y1="0" y2="1">
      <stop offset="0" stop-color="#4a5e69" />
      <stop offset="0.48" stop-color="#6e7d83" />
      <stop offset="1" stop-color="#263039" />
    </linearGradient>
  </defs>
  <rect width="1280" height="720" fill="#1f2830" />
  <rect y="94" width="1280" height="626" fill="url(#floor)" />
  <path d="M0 254h1280M0 384h1280M0 520h1280M160 94v626M360 94v626M620 94v626M920 94v626" stroke="#e2e8f0" stroke-opacity="0.14" stroke-width="3" />
  <rect x="74" y="92" width="332" height="558" fill="#162028" />
  <rect x="122" y="136" width="236" height="408" fill="#d7e4ef" />
  <rect x="144" y="158" width="192" height="364" fill="#233644" />
  <rect x="168" y="186" width="146" height="80" rx="8" fill="#dbe6ef" />
  <text x="241" y="237" fill="#193041" font-family="Arial, sans-serif" font-size="33" font-weight="700" text-anchor="middle">CELL</text>
  <path d="M180 592h122" stroke="#f5d565" stroke-width="24" stroke-linecap="round" />
  <path d="M506 128h166v92H506zM706 124h138v78H706zM916 146h212v104H916z" fill="#38454f" opacity="0.65" />
  <path d="M180 130h564v462H180z" fill="#34d399" fill-opacity="0.08" stroke="#f5d565" stroke-width="8" stroke-dasharray="24 16" />
  <path d="M572 258c34 0 62 28 62 62v76h42v-72c0-37 30-67 67-67h36" fill="none" stroke="#7dd3fc" stroke-width="20" stroke-linecap="round" stroke-linejoin="round" />
  <path d="M646 258v-82c0-24 20-44 44-44h18" fill="none" stroke="#7dd3fc" stroke-width="20" stroke-linecap="round" />
  <circle cx="722" cy="196" r="30" fill="#7dd3fc" />
  <circle cx="722" cy="196" r="14" fill="#e2e8f0" />
  <rect x="904" y="446" width="194" height="74" fill="#617280" />
  <rect x="924" y="372" width="154" height="74" fill="#6d7f8f" />
  <path d="M112 666h1036" stroke="#0f172a" stroke-opacity="0.35" stroke-width="24" stroke-linecap="round" />
</svg>
